<svg width="144" height="155" viewbox="0 0 144 155" xmlns="http://www.w3.org/2000/svg">
 <defs>
  <linearGradient id="Gradient" x1="0" y1="0" x2="1" y2="1">
   <stop offset="30%" stop-color="#EF475F"/>
   <stop offset="70%" stop-color="#F6916A"/>
  </linearGradient>
 </defs>
  <path id="note" fill="url(#Gradient)" d="m35.05446,119.75309l-0.1234,-91.91359c36.38554,-15.18072 64.8698,-22.58961 108.45674,-27.8395l0.18524,123.20987c-9.43884,27.36794 -40.92807,19.45479 -44.58799,9.8386c-7.49661,-28.21956 29.67718,-30.46033 33.16823,-25.88799c-0.1234,-0.24693 0.74069,-68.88887 0.61729,-69.1358c-29.51208,0.27292 -61.91364,5.80249 -86.29635,14.44446l-0.12341,84.01233c-7.94431,26.36693 -43.47097,21.16171 -46.00401,5.25212c-4.24433,-20.52508 31.81609,-27.52267 34.70766,-21.9805zm96.72482,-93.34787l0.58823,-12.94118c-29.41175,2.94118 -59.11764,9.11765 -85.58823,21.76471l0,9.70588c26.17647,-10.29412 50.29412,-14.41177 85,-18.52941z"></path>
</svg>
