<svg width="412" height="33" xmlns="http://www.w3.org/2000/svg" xmlns:svg="http://www.w3.org/2000/svg">
<defs>
      <linearGradient id="Gradient">
        <stop offset="0%" stop-color="#3D923A"/>
        <stop offset="80%" stop-color="#B8FA7C"/>
      </linearGradient>
</defs>
  <path id="palette_left" fill="url(#Gradient)" d="m44.96518,10.15671c37.56219,4.47762 44.88157,0.2055 86.62686,0.78856c83.66613,6.60189 112.5133,0.20647 128.44743,0.18116c13.57906,-2.92385 77.13856,3.10502 116.26899,0.27406c8.15217,0.24876 6.30002,1.15456 12.99502,0.0423c1.26021,3.0544 5.09119,2.44528 9.43111,2.96344c4.15876,2.14861 -13.96842,1.22312 -14.15748,1.01666c-0.18905,-0.20647 -2.04975,1.4935 14.42787,2.73631c-3.26877,3.23557 -26.08717,0.04694 -44.02986,0.74627c-4.17455,0.69934 -13.49253,1.94776 -13.68159,1.7413c-28.63109,2.51092 -63.50605,0.20646 -86.34003,0.36232c-19.21081,3.41672 -48.57798,4.16492 -58.18733,3.77731c-19.39196,-0.93111 -50.14893,-1.69166 -67.91045,-3.89088c-20.84123,1.24282 -21.60685,1.42862 -44.58706,1.699c-3.23383,0.99503 -30.22118,-2.62816 -57.40299,0.78856c-0.18906,-0.20646 -5.52152,-0.92375 -13.86275,-0.04325c-3.26877,-2.01807 -3.11237,-7.71048 -3.30143,-7.91694c0.53559,0.15585 -0.53016,-4.77408 1.51417,-5.01839c1.56034,-2.40471 19.0729,3.98107 33.74952,-0.24779z"></path>

</svg>