<svg width="412" height="33" xmlns="http://www.w3.org/2000/svg" xmlns:svg="http://www.w3.org/2000/svg">
<defs>
      <linearGradient id="Gradient">
        <stop offset="0%" stop-color="#B8FA7C"/>
        <stop offset="80%" stop-color="#3D923A"/>
      </linearGradient>
</defs>
  <path id="palette_right" fill="url(#Gradient)" d="m11.71967,14.61321c2.41573,-3.49601 7.36678,-0.05874 9.09555,-2.42588c5.10101,-0.81072 14.35458,-1.32533 20.2845,-0.53908c8.809,-0.93124 30.6752,2.79221 56.44857,-0.34301c14.4343,-0.93028 53.39687,-0.47366 60.80211,-0.19608c12.8527,2.09341 85.93523,3.91343 92.45283,0.80863c7.81461,1.56446 2.08641,-2.81079 57.14285,-1.07817c21.85282,0.5653 20.25444,0.67298 36.92932,0.4884c9.28189,-2.13012 15.48345,-1.37184 25.06529,-1.02748c1.41064,0.08495 7.4318,2.39756 17.53036,0.26954c2.70555,1.24423 8.41452,-0.14578 11.8497,0c1.87874,1.0537 3.51033,6.44277 -1.92735,12.00981c-1.28724,2.5839 -20.14677,-0.43594 -27.45271,-0.14997c-2.24758,-0.88135 -11.77104,-0.18668 -31.80593,0.53908c-31.05953,-0.18214 -49.18037,-0.51497 -55.79515,-0.80862c-17.63943,-1.33128 -43.88112,2.86951 -69.00269,1.88679c-42.6313,0.83309 -46.57863,-3.37854 -78.43666,-3.2345c-24.46502,0.27374 -42.50351,-0.95316 -63.07277,0c-21.21777,-0.34386 -30.10967,-2.59823 -32.61456,-2.42588c-8.34146,-1.51377 -27.1608,2.87791 -27.49326,0c-1.49979,-2.7482 8.30546,0.80059 14.41961,-3.1048c0.92608,-2.21926 -16.10573,3.74107 -14.41961,-0.66878z"></path>
</svg>